<?xml version="1.0" encoding="UTF-8" standalone="no"?>
<!-- Created with Inkscape (http://www.inkscape.org/) -->

<svg
   xmlns:dc="http://purl.org/dc/elements/1.1/"
   xmlns:cc="http://creativecommons.org/ns#"
   xmlns:rdf="http://www.w3.org/1999/02/22-rdf-syntax-ns#"
   xmlns:svg="http://www.w3.org/2000/svg"
   xmlns="http://www.w3.org/2000/svg"
   xmlns:sodipodi="http://sodipodi.sourceforge.net/DTD/sodipodi-0.dtd"
   xmlns:inkscape="http://www.inkscape.org/namespaces/inkscape"
   width="1024"
   height="1024"
   id="svg2"
   version="1.1"
   inkscape:version="0.48.5 r10040"
   sodipodi:docname="rockntown.svg">
  <defs
     id="defs4" />
  <sodipodi:namedview
     id="base"
     pagecolor="#ffffff"
     bordercolor="#666666"
     borderopacity="1.0"
     inkscape:pageopacity="0.0"
     inkscape:pageshadow="2"
     inkscape:zoom="0.57617188"
     inkscape:cx="512"
     inkscape:cy="512"
     inkscape:document-units="px"
     inkscape:current-layer="layer1"
     showgrid="false"
     inkscape:window-width="1440"
     inkscape:window-height="797"
     inkscape:window-x="0"
     inkscape:window-y="0"
     inkscape:window-maximized="1" />
  <metadata
     id="metadata7">
    <rdf:RDF>
      <cc:Work
         rdf:about="">
        <dc:format>image/svg+xml</dc:format>
        <dc:type
           rdf:resource="http://purl.org/dc/dcmitype/StillImage" />
        <dc:title />
      </cc:Work>
    </rdf:RDF>
  </metadata>
  <g
     inkscape:label="Capa 1"
     inkscape:groupmode="layer"
     id="layer1"
     transform="translate(0,-28.362183)">
    <path
       style="fill:#000000"
       d="m 507.21292,1013.994 c -43.7271,-2.3396 -62.42518,-4.9248 -76.53068,-10.5809 l -18.66601,-7.48488 52.26484,0.33271 c 50.76724,0.32282 53.28111,-0.0401 87.73028,-12.64627 44.12457,-16.14758 102.17095,-52.13102 135.41284,-83.94362 13.9058,-13.30794 22.69041,-23.20126 19.52133,-21.98516 -3.16907,1.21608 -39.15637,20.57116 -79.97174,43.01128 l -74.20976,40.80028 -98.52138,2.71355 -98.52139,2.71356 -51.15321,-29.27298 c -48.41999,-27.70886 -53.02968,-31.38972 -86.27172,-68.88855 -35.04649,-39.53428 -35.17746,-39.7567 -63.84241,-108.41697 l -28.7239,-68.80139 -2.02986,-62.36226 c -1.66795,-51.24313 -0.83119,-68.2166 4.69305,-95.19667 6.22691,-30.4119 19.761,-65.13713 27.17223,-69.7175 1.73183,-1.07036 6.20123,28.6297 9.93201,66.00014 6.13872,61.49062 8.34573,72.37987 23.229,114.61125 l 16.4458,46.66504 49.23864,49.46494 c 44.63544,44.84051 50.46511,49.45961 62.35681,49.40779 27.07376,-0.11798 24.38917,-4.80049 -24.74896,-43.168 l -47.43631,-37.03871 -27.31401,-67.19767 -27.31402,-67.19763 -0.0298,-81.35738 -0.0337,-81.35733 15.45607,-20.4714 c 8.50082,-11.25927 16.26883,-19.65864 17.26223,-18.66523 0.99342,0.9934 -0.27737,21.14923 -2.82401,44.79071 -4.32443,40.14585 -4.1701,43.68757 2.33706,53.63076 3.832,5.85543 28.51809,41.74994 54.8579,79.76559 l 47.89066,69.11941 29.8458,14.55147 29.8458,14.5515 24.45715,-13.01324 c 45.28336,-24.0945 45.92873,-24.64638 45.92873,-39.27617 0,-7.31858 2.44313,-18.03099 5.4292,-23.80536 4.89217,-9.46046 4.65512,-12.87971 -2.39692,-34.5701 -5.85626,-18.01237 -7.17113,-28.43906 -5.22391,-41.42403 2.43478,-16.23636 3.93587,-18.11585 23.3312,-29.21274 16.79363,-9.60835 21.35061,-10.87836 24.00339,-6.68962 4.77861,7.54535 4.34672,9.05872 -6.1431,21.52513 -7.84571,9.32411 -9.09298,13.66722 -7.05094,24.55226 3.20629,17.09098 8.08501,17.23196 6.09381,0.17621 -0.83785,-7.1765 -0.41013,-15.94911 0.95045,-19.49471 4.23921,-11.04719 9.41715,2.13792 9.48136,24.14317 0.0337,10.89435 1.76144,19.59932 3.89432,19.59932 2.48931,0 2.98052,-8.85151 1.39835,-25.19912 -1.34134,-13.85952 -2.42703,-26.03908 -2.41265,-27.06572 0.15791,-11.2726 1.80907,-14.93282 6.7362,-14.93282 4.98008,0 5.45203,-3.9293 3.25084,-27.06574 -2.79562,-29.38429 -3.77353,-32.66552 -9.73561,-32.66552 -2.61773,0 -3.25394,9.76575 -1.88486,28.93231 1.27846,17.89793 0.90231,24.66097 -0.98631,17.73274 -1.67912,-6.15979 -3.2517,-18.33937 -3.49465,-27.06573 -0.24303,-8.72637 -1.80881,-15.86611 -3.47979,-15.86611 -1.67099,0 -2.30902,10.07964 -1.4179,22.39921 1.30471,18.03762 0.54199,22.39924 -3.9172,22.39924 -4.12727,0 -6.03394,-6.18611 -7.48734,-24.29265 -1.68655,-21.01057 -3.81208,-26.5651 -15.73246,-41.11234 l -13.78247,-16.81968 5.88831,-25.88898 c 7.65571,-33.65953 7.59135,-34.31778 -3.0927,-31.63625 -6.80105,1.70697 -9.54009,0.49264 -11.28426,-5.00275 -5.09983,-16.06823 12.16727,-28.24457 18.4,-12.9752 2.44801,5.9973 2.91851,5.92075 5.73682,-0.93329 1.68855,-4.10653 3.05553,-11.66627 3.03778,-16.79942 -0.0186,-5.13316 -0.8797,-7.23307 -1.91532,-4.66649 -4.15771,10.30374 -12.46039,4.62871 -12.46039,-8.51695 0,-14.58483 7.7098,-20.49275 16.84695,-12.90959 4.60572,3.82239 5.55226,3.30922 5.55226,-3.01023 0,-4.19002 0.97269,-10.15294 2.16149,-13.25094 1.62324,-4.23004 0.22885,-5.12732 -5.59979,-3.6031 -4.2687,1.11627 -7.76129,0.2912 -7.76129,-1.83368 0,-2.12479 -0.93661,-6.304 -2.0813,-9.28705 -2.63666,-6.87103 8.09325,-17.90993 14.87792,-15.30639 5.86051,2.24887 7.58438,-0.0262 11.07329,-14.60833 2.27958,-9.52817 1.84772,-10.11129 -4.83824,-6.5331 -9.89011,5.293 -10.37908,5.13487 -12.80481,-4.14105 -4.41358,-16.87756 11.46604,-29.23895 19.60654,-15.26257 3.33046,5.71807 3.81934,5.77627 3.91871,0.46665 0.0623,-3.33654 1.23679,-11.73626 2.60971,-18.66602 2.28203,-11.51831 1.95393,-12.15343 -3.82338,-7.40107 -7.09885,5.83948 -7.9794,5.41886 -11.29277,-5.39435 -1.36108,-4.44182 0.0112,-10.71801 3.26943,-14.93279 5.35895,-6.93618 5.85456,-6.96504 10.7756,-0.62773 4.63618,5.97043 5.39194,6.034 7.4664,0.62795 4.78347,-12.46547 2.66432,-19.73112 -5.15827,-17.68549 -6.2987,1.64717 -7.4664,0.11461 -7.4664,-9.79966 0,-11.822743 11.02806,-21.365532 14.08671,-12.1895 2.45724,7.371655 7.36935,4.93772 9.83124,-4.871309 2.77922,-11.073227 17.39736,-15.908548 30.30921,-10.025514 20.20954,9.208095 28.36957,48.720463 20.78043,100.622883 -5.21564,35.66997 -1.67755,63.85298 14.70336,117.12205 6.09703,19.82692 11.08552,38.43343 11.08552,41.34779 0,2.91438 -4.30468,9.3429 -9.56601,14.28564 -15.79091,14.83481 -24.90533,32.22314 -21.86991,41.72309 5.11218,15.99961 4.66846,36.45528 -0.79076,36.45528 -2.80792,0 -5.10535,1.7791 -5.10535,3.95354 0,2.17445 -1.67994,2.91527 -3.73319,1.64628 -2.05327,-1.269 -3.73322,-6.40798 -3.73322,-11.41996 0,-5.01196 -1.67994,-9.11267 -3.73321,-9.11267 -4.26913,0 -4.67974,12.11384 -1.35003,39.82901 1.70723,14.21013 3.66672,18.77895 7.43398,17.33329 2.81363,-1.07967 5.11567,-0.0444 5.11567,2.30089 0,3.10714 2.02568,3.17985 7.4664,0.26804 4.10653,-2.19773 7.46643,-2.46065 7.46643,-0.58425 0,4.37013 -21.69444,13.42584 -30.5633,12.75778 -7.54409,-0.5683 -8.50752,7.69739 -4.39472,37.70366 1.61573,11.78781 4.14975,17.32046 7.93305,17.32046 4.20579,0 5.00473,-2.77149 3.28201,-11.38517 -1.41224,-7.06111 -0.88052,-10.52212 1.39994,-9.1127 2.02236,1.24988 3.677,5.53325 3.677,9.5186 0,3.98536 1.85965,7.24608 4.13262,7.24608 2.53364,0 3.02895,2.52774 1.28018,6.53309 -1.56881,3.59323 -2.73153,14.93283 -2.58382,25.19914 l 0.26879,18.66601 -3.81925,-17.73272 c -2.1006,-9.75299 -5.31748,-17.73271 -7.14861,-17.73271 -3.80282,0 -4.42784,23.43985 -1.07236,40.2172 2.09174,10.45887 3.73135,11.46912 22.39922,13.8015 11.27594,1.40884 20.25949,4.45248 20.40864,6.91449 0.14672,2.41881 3.17479,29.59698 6.72942,60.3959 l 6.46304,55.99806 20.49842,-0.0579 c 19.52081,-0.0553 22.48899,-1.45554 62.2362,-29.36428 22.95581,-16.11855 43.2144,-31.21197 45.01918,-33.541 1.80475,-2.32901 9.65627,-20.52266 17.44784,-40.43037 l 14.16646,-36.19582 -6.51146,-55.26767 C 743.25295,417.51925 744.8762,424.15554 724.18338,394.13637 c -10.38062,-15.05926 -24.12985,-33.68022 -30.55383,-41.37993 -11.10854,-13.31451 -11.28116,-13.99951 -3.52837,-13.99951 16.30121,0 54.61882,43.05487 88.14101,99.0381 l 31.36046,52.37308 0.11796,65.22284 0.11798,65.22283 9.21506,-10.47448 c 9.01903,-10.25176 9.21341,-11.79995 9.14038,-72.79746 l -0.0746,-62.323 -29.51862,-55.99807 C 774.403,373.11668 763.10104,356.29348 735.90069,325.69075 l -33.18145,-37.33203 -38.96909,-11.90235 c -28.6956,-8.76452 -41.72998,-14.78409 -49.44156,-22.83328 l -10.47251,-10.93093 51.01397,17.46384 c 50.2266,17.19428 51.74276,18.04434 98.23561,55.07502 44.52559,35.46382 49.16484,40.45952 81.25627,87.4999 18.86741,27.65631 39.99911,64.02989 47.4187,81.62098 l 13.38411,31.73222 2.96065,90.67764 2.96065,90.67763 -35.46544,81.38923 -35.46543,81.38926 -55.44285,49.58854 -55.44288,49.5886 -73.19418,29.40241 c -40.25682,16.17147 -74.94542,29.15287 -77.08587,28.84757 -2.14031,-0.3049 -29.93065,-1.948 -61.75622,-3.651 z m 9.1605,-306.58322 c -3.67605,-31.37612 -4.80323,-32.34057 -16.27722,-13.92731 l -10.42338,16.72721 13.43657,8.28318 c 7.39008,4.55578 13.91438,8.33566 14.4984,8.39972 0.58406,0.0641 0.0298,-8.70318 -1.23437,-19.4828 z m 11.00871,-11.66283 c -1.39386,-13.60477 -3.57435,-24.73591 -4.84554,-24.73591 -2.50198,0 -1.28171,29.94002 1.80576,44.30565 3.6647,17.0513 5.54891,4.92085 3.03978,-19.56974 z m 15.82577,13.52944 c -1.27268,-7.69974 -2.33247,-20.2993 -2.35505,-27.99904 -0.0298,-10.46718 -1.58523,-13.9995 -6.1609,-13.9995 -5.19279,0 -5.76321,2.96893 -3.76566,19.5993 1.2948,10.77963 2.36877,23.3792 2.38662,27.99903 0.0186,5.26384 2.30536,8.3997 6.12068,8.3997 4.95792,0 5.65864,-2.5992 3.77431,-13.99949 z m 12.53666,3.32093 c 0,-18.8887 -4.65041,-45.31947 -7.97382,-45.31947 -3.74381,0 -4.1738,21.76647 -0.82964,41.99854 2.71907,16.45035 8.80346,18.74559 8.80346,3.32093 z m 12.848,-16.38714 c -2.39194,-25.51851 -6.29604,-36.7287 -11.11362,-31.91114 -1.16779,1.16781 -0.96408,14.91534 0.45272,30.55007 1.89254,20.88512 3.98497,28.42677 7.88687,28.42677 4.3374,0 4.84589,-4.96154 2.77403,-27.0657 z m 14.70049,0 c -2.23327,-25.51212 -6.05946,-36.73297 -10.8813,-31.91114 -1.16778,1.16781 -0.96407,14.91534 0.45271,30.55007 1.84104,20.31661 4.0341,28.42677 7.68689,28.42677 4.07372,0 4.6301,-5.49296 2.7417,-27.0657 z m 7.59644,-4.23878 c -1.41678,-15.63472 -3.69139,-28.42677 -5.05467,-28.42677 -1.36333,0 -1.21789,11.33961 0.32328,25.19914 1.54108,13.8595 2.88824,27.57903 2.99366,30.48782 0.10533,2.90877 1.11919,4.36125 2.25273,3.22765 1.13359,-1.13358 0.90187,-14.85309 -0.51493,-30.48784 z m -71.95043,-71.35859 -3.50974,-14.93283 -0.32403,16.79942 c -0.17808,9.23968 0.91294,20.99928 2.42486,26.13243 2.71198,9.20756 2.76354,9.18248 3.83377,-1.86661 0.59667,-6.15978 -0.49454,-17.91937 -2.42491,-26.13241 z m 16.78031,18.14496 c -1.3057,-9.52627 -2.37403,-20.44589 -2.37403,-24.2658 0,-3.93253 -2.64105,-6.94538 -6.08827,-6.94538 -4.95791,0 -5.65863,2.59921 -3.77429,13.99951 1.27269,7.69974 2.33246,18.61936 2.35505,24.26582 0.0299,6.99916 1.98464,10.26632 6.14832,10.26632 5.11778,0 5.72263,-2.80626 3.73322,-17.32047 z m 11.78097,-6.94102 c -0.93629,-11.29059 -2.82425,-21.65024 -4.1955,-23.02144 -5.26609,-5.26613 -6.74316,2.64755 -4.23743,22.7028 3.41842,27.36009 10.69823,27.63516 8.43293,0.31882 z m 15.66953,10.26197 c -0.0754,-18.86952 -4.67105,-38.56122 -8.68681,-37.22265 -3.81827,1.27276 -3.86938,38.47406 -0.0612,44.63563 3.92537,6.35145 8.78668,2.23206 8.74806,-7.41298 z m 12.2175,-16.79941 c -1.36184,-15.37493 -3.43537,-21.46593 -7.30752,-21.46593 -4.39421,0 -4.91921,4.01805 -2.80476,21.46593 2.89494,23.88817 4.86945,29.20671 9.12932,24.5911 1.58639,-1.71884 2.02873,-12.78485 0.98296,-24.5911 z m 6.95014,-6.5331 c -2.88106,-14.33794 -3.43559,-15.09006 -3.78469,-5.13316 -0.52929,15.09625 4.58352,39.80317 6.08374,29.39896 0.59216,-4.1065 -0.44242,-15.02613 -2.29905,-24.2658 z m -67.93184,-46.82135 c -1.39026,-13.43218 -3.81406,-25.61176 -5.38619,-27.06573 -1.57213,-1.45397 -1.78178,5.57061 -0.4659,15.61017 1.31593,10.03959 2.39254,22.21916 2.39254,27.06571 0,4.84661 1.34716,8.81197 2.99366,8.81197 1.64653,0 1.85618,-10.98995 0.46589,-24.42212 z m 15.20647,9.95596 c 0,-19.2643 -3.88994,-37.79869 -7.93306,-37.79869 -3.78771,0 -4.33055,23.6124 -0.9333,40.59859 3.26603,16.33012 8.86636,14.56159 8.86636,-2.7999 z m 12.48693,-10.73296 c -2.35081,-26.46953 -4.29748,-33.10597 -8.396,-28.62329 -5.07882,5.55482 -0.25909,50.08922 5.42105,50.08922 3.67477,0 4.41013,-5.30605 2.97495,-21.46593 z m -19.39518,-60.91461 c -1.10664,-23.82186 -3.47095,-33.34877 -8.27615,-33.34877 -4.06195,0 -4.46077,14.2136 -1.08897,38.81334 3.30587,24.11902 10.54327,19.89599 9.36512,-5.46457 z m 13.03762,4.91657 c -1.2727,-7.69974 -2.33248,-19.45934 -2.35507,-26.13244 -0.0224,-6.6731 -1.72103,-12.1329 -3.7743,-12.1329 -4.17948,0 -4.96479,22.77445 -1.39995,40.5986 3.3822,16.91104 10.35314,14.75079 7.52932,-2.33326 z m -7.48856,-70.51861 c -1.30569,-9.5263 -2.37402,-22.12581 -2.37402,-27.99905 0,-5.87321 -1.67994,-10.67855 -3.7332,-10.67855 -4.18357,0 -4.84499,20.77554 -1.33704,41.99855 3.42314,20.71012 10.31659,17.63491 7.44426,-3.32095 z m 14.22372,-7.87869 c -2.82669,-31.29381 -4.47353,-36.95 -9.34106,-32.08246 -5.76803,5.76802 0.0337,57.2816 6.44959,57.2816 4.11585,0 4.7044,-5.12897 2.89147,-25.19914 z M 487.2244,388.22189 c -1.00411,-3.59321 -2.94852,-21.23822 -4.32096,-39.21116 -1.37238,-17.97297 -3.74009,-31.90878 -5.26153,-30.96851 -1.52143,0.94033 -5.00686,13.58461 -7.74543,28.09849 l -4.97922,26.38885 10.64668,11.11271 c 12.30821,12.84702 14.17571,13.58048 11.66046,4.57962 z m 12.08044,-3.73319 c 0.28821,6.69662 2.49953,10.26629 6.35999,10.26629 5.06058,0 5.63628,-4.19314 3.97234,-28.93231 l -1.946,-28.93233 3.84792,27.06573 c 3.97815,27.98184 10.15608,36.21579 11.2041,14.9328 l 0.59742,-12.1329 1.50572,12.1329 c 1.87982,15.14773 11.98757,16.62272 12.79157,1.86659 l 0.55934,-10.26629 1.5766,10.48764 c 2.07174,13.78161 10.62142,10.74582 9.55076,-3.39127 -4.52889,-59.80252 -26.93514,-263.82147 -29.22556,-266.11187 -0.92759,-0.92758 -1.96034,17.49283 -2.29503,40.9342 -0.45537,31.89705 -1.15988,37.4546 -2.7999,22.08816 -2.90905,-27.25688 -7.64341,-15.81069 -8.23288,19.90463 -0.33374,20.21934 -1.13828,24.02286 -3.29151,15.56077 -2.0557,-8.07868 -3.12052,-1.83681 -3.82128,22.39923 -0.71408,24.69707 -1.57608,29.64249 -3.25362,18.666 -3.08416,-20.18049 -7.85794,-8.52144 -7.85794,19.19166 0,12.68112 -1.41794,19.57128 -3.73319,18.14039 -2.05326,-1.269 -3.71861,-0.10827 -3.70075,2.57957 0.0262,3.70863 7.83367,72.4807 11.57642,101.95011 0.26095,2.05326 1.75656,-1.30663 3.32395,-7.46641 l 2.84981,-11.19961 0.44172,10.26632 z m 35.05727,-30.79893 c 0,-9.23967 0.72806,-13.01956 1.61786,-8.39972 0.88986,4.61985 0.88986,12.17958 0,16.79941 -0.8898,4.61985 -1.61786,0.83999 -1.61786,-8.39969 z m -41.35423,1.86659 c 0.0762,-6.15978 0.91279,-8.22774 1.85929,-4.59545 0.94653,3.63228 0.8843,8.67211 -0.13812,11.19959 -1.02281,2.5275 -1.79726,-0.44435 -1.72117,-6.60414 z m 23.53805,-24.2658 c -1.47494,-16.66223 -1.88034,-31.09633 -0.90087,-32.07581 0.97948,-0.97943 2.9715,11.86804 4.42666,28.55001 1.4552,16.68195 1.86058,31.11602 0.90086,32.07576 -0.9597,0.95972 -2.95169,-11.88776 -4.42665,-28.54996 z m -27.13294,-11.19962 c 0,-7.18641 0.7683,-10.1263 1.70731,-6.53311 0.93897,3.59322 0.93897,9.47301 0,13.06621 -0.93901,3.59322 -1.70731,0.65333 -1.70731,-6.5331 z m 15.00816,-1.86661 c 0.0414,-8.21304 0.80596,-11.13332 1.6989,-6.48958 0.89295,4.64378 0.85905,11.36354 -0.0753,14.93283 -0.93437,3.56927 -1.665,-0.23034 -1.62356,-8.44325 z m 26.13242,0 c 0.0414,-8.21304 0.80597,-11.13332 1.69891,-6.48958 0.89294,4.64378 0.85907,11.36354 -0.0754,14.93283 -0.9344,3.56927 -1.66503,-0.23034 -1.62359,-8.44325 z M 500.81424,284.6255 c 0.0298,-10.26629 0.75306,-14.02306 1.61114,-8.34836 0.85812,5.67469 0.83516,14.0744 -0.0507,18.66601 -0.88629,4.5916 -1.58835,-0.0512 -1.56035,-10.31765 z m 25.93079,1.86661 c 0,-7.18642 0.7683,-10.12631 1.70731,-6.5331 0.93898,3.5932 0.93898,9.473 0,13.06621 -0.93901,3.5932 -1.70731,0.65331 -1.70731,-6.53311 z m -14.78213,-7.4664 c 0,-9.23967 0.72805,-13.01956 1.61786,-8.3997 0.88984,4.61982 0.88984,12.17957 0,16.79941 -0.88981,4.61982 -1.61786,0.83996 -1.61786,-8.39971 z m 10.91061,-24.26582 c 0.0762,-6.1598 0.91278,-8.22778 1.85929,-4.59546 0.94651,3.6323 0.88429,8.67211 -0.13813,11.1996 -1.02281,2.5275 -1.79724,-0.44437 -1.72116,-6.60414 z m -14.59286,-14.93281 c 0.0299,-10.26632 0.75306,-14.02308 1.61114,-8.34839 0.85811,5.67471 0.83516,14.0744 -0.0507,18.66602 -0.8863,4.59162 -1.58837,-0.0512 -1.56037,-10.31763 z m 10.85966,-26.13242 c 0.0762,-6.15979 0.91277,-8.22776 1.85929,-4.59548 0.94652,3.63232 0.88429,8.67213 -0.13813,11.19962 -1.02282,2.52749 -1.79724,-0.44436 -1.72116,-6.60414 z m 66.32163,111.8711 c 0.0815,-2.122 -5.95263,-21.44132 -13.40922,-42.93185 -14.9868,-43.19307 -16.44972,-61.87518 -10.95278,-139.87012 2.78723,-39.54672 2.56427,-41.54745 -6.02837,-54.105614 -11.65891,-17.039484 -19.44263,-18.284855 -25.33732,-4.053837 -3.89654,9.407073 -2.73443,30.383741 7.09321,128.034931 6.46429,64.23156 12.7327,124.69764 13.92986,134.36908 l 2.17659,17.58438 16.18989,-17.58438 c 8.90446,-9.67144 16.25664,-19.32057 16.33814,-21.44259 z M 353.43298,585.73367 C 329.52955,573.547 284.13744,529.38122 266.6048,501.25123 252.18607,478.1173 249.51556,470.51048 246.18807,443.09522 c -3.26924,-26.93549 -2.79389,-36.11917 3.25574,-62.89688 6.87743,-30.44225 7.82644,-32.10826 32.56332,-57.16657 33.56078,-33.99691 70.97667,-61.55425 92.28011,-67.96562 9.458,-2.84644 17.19637,-4.60728 17.19637,-3.91299 0,0.69431 -6.54112,4.93873 -14.5359,9.43202 -18.31446,10.2933 -53.33872,54.73383 -74.40132,94.40408 l -16.15801,30.43273 2.09714,46.2325 2.09712,46.23254 19.1442,35.89795 c 11.87804,22.27296 27.08545,44.0453 40.06731,57.36388 11.50772,11.80626 20.07096,21.46593 19.02944,21.46593 -1.04153,0 -7.96729,-3.09654 -15.39061,-6.88112 z m 214.05429,2.88721 c -5.87484,-2.35303 -8.04143,-5.471 -6.53311,-9.40169 1.24125,-3.23459 2.2568,-7.25929 2.2568,-8.94376 0,-2.42542 19.40825,-11.25947 24.73685,-11.25947 0.67291,0 4.00351,4.24289 7.40137,9.42864 5.78512,8.82926 5.75383,9.89725 -0.49257,16.79942 -7.25007,8.01128 -13.78548,8.81761 -27.36934,3.37686 z m 6.91767,-35.03155 c 9.98313,-5.52495 13.47162,-4.99391 9.49213,1.44506 -1.35342,2.18984 -6.14146,3.92202 -10.64012,3.84924 -7.88798,-0.12766 -7.84706,-0.31618 1.14799,-5.2943 z m -10.5233,-6.8315 c -2.48371,-2.99265 -2.69975,-6.84718 -0.57548,-10.2663 1.87071,-3.01103 2.43856,-11.53243 1.2619,-18.93641 -1.84074,-11.58254 -1.01271,-13.75646 5.93136,-15.57236 5.2681,-1.37767 7.51056,-0.59209 6.45757,2.26222 -0.88718,2.40499 -3.50306,3.95274 -5.81296,3.43943 -2.30994,-0.51332 -4.17415,2.84657 -4.14271,7.46641 0.0337,4.82916 1.22306,6.65364 2.7999,4.29206 1.50852,-2.25918 6.71861,-6.20306 11.57797,-8.76415 7.25519,-3.82372 9.79772,-3.69405 14.21689,0.72513 8.31939,8.31938 2.41524,23.76644 -12.4323,32.5267 -15.26997,9.0095 -14.27271,8.8633 -19.28214,2.82727 z m -20.46499,-46.11264 c -8.11485,-8.11482 -1.37579,-16.96912 21.50166,-28.25049 23.57059,-11.62317 24.27613,-11.73405 31.73223,-4.98637 9.389,8.49695 9.42077,9.87567 0.44925,19.50547 -4.18625,4.49338 -14.49584,8.80057 -24.74311,10.33724 -9.66168,1.44884 -19.53959,3.39136 -21.95089,4.31668 -2.41137,0.9253 -5.55643,0.51017 -6.98914,-0.92253 z m 16.93584,-52.7708 c -5.19867,-14.98655 1.30629,-26.98697 14.62855,-26.98697 9.64384,0 10.62914,1.20236 10.62914,12.97035 0,10.54608 -2.03019,14.0202 -10.86186,18.58725 -10.55377,5.45753 -10.96214,5.32791 -14.39583,-4.57063 z"
       id="path3182"
       inkscape:connector-curvature="0" />
  </g>
</svg>
