<?xml version="1.0" encoding="UTF-8" standalone="no"?>
<!-- Created with Inkscape (http://www.inkscape.org/) -->

<svg
   xmlns:dc="http://purl.org/dc/elements/1.1/"
   xmlns:cc="http://creativecommons.org/ns#"
   xmlns:rdf="http://www.w3.org/1999/02/22-rdf-syntax-ns#"
   xmlns:svg="http://www.w3.org/2000/svg"
   xmlns="http://www.w3.org/2000/svg"
   xmlns:sodipodi="http://sodipodi.sourceforge.net/DTD/sodipodi-0.dtd"
   xmlns:inkscape="http://www.inkscape.org/namespaces/inkscape"
   width="1024"
   height="1024"
   id="svg2"
   version="1.1"
   inkscape:version="0.48.5 r10040"
   sodipodi:docname="blogdeonda.svg">
  <defs
     id="defs4" />
  <sodipodi:namedview
     id="base"
     pagecolor="#ffffff"
     bordercolor="#666666"
     borderopacity="1.0"
     inkscape:pageopacity="0.0"
     inkscape:pageshadow="2"
     inkscape:zoom="0.57617188"
     inkscape:cx="183.97288"
     inkscape:cy="512"
     inkscape:document-units="px"
     inkscape:current-layer="text2987"
     showgrid="false"
     inkscape:window-width="1440"
     inkscape:window-height="797"
     inkscape:window-x="0"
     inkscape:window-y="0"
     inkscape:window-maximized="1" />
  <metadata
     id="metadata7">
    <rdf:RDF>
      <cc:Work
         rdf:about="">
        <dc:format>image/svg+xml</dc:format>
        <dc:type
           rdf:resource="http://purl.org/dc/dcmitype/StillImage" />
        <dc:title />
      </cc:Work>
    </rdf:RDF>
  </metadata>
  <g
     inkscape:label="Capa 1"
     inkscape:groupmode="layer"
     id="layer1"
     transform="translate(0,-28.362183)">
    <g
       style="font-size:1504.44006348px;font-style:normal;font-weight:normal;line-height:125%;letter-spacing:0px;word-spacing:0px;fill:#ee0000;fill-opacity:1;stroke:none;font-family:Sans"
       id="text2987">
      <path
         d="m 243.8747,112.4636 c 25.9553,8.5e-4 93.29263,33.79196 202.01221,101.3734 l 76.39735,-5.14213 24.97606,0 c 44.07486,7.6e-4 136.87795,43.83125 278.40956,131.49159 44.07458,47.99379 66.11225,108.71982 66.11309,182.17829 l 0,127.08405 c -8.4e-4,155.73321 -79.33646,255.14761 -238.00712,298.24349 L 476.73969,968.2608 c -49.95248,0 -147.8977,-50.68665 -293.83595,-152.0601 -33.79123,-50.44164 -50.68678,-101.12829 -50.6867,-152.0601 l 0,-420.18541 c -8e-5,-72.96847 35.50506,-116.79895 106.51553,-131.49159 l 5.14213,0 m 96.23127,182.17829 -5.14213,435.61179 c 13.71206,121.45231 65.86789,182.17835 156.46765,182.17829 165.52698,-18.60953 248.29069,-37.21912 248.29137,-55.82883 67.58152,-48.9725 101.37262,-121.45196 101.37341,-217.4386 l 0,-96.23127 c -7.9e-4,-91.08863 -32.07785,-153.52871 -96.23128,-187.32042 l -60.97096,-10.28426 c -136.6342,13.71295 -219.15305,30.6085 -247.55679,50.6867 l -5.14212,-5.14213 0,-110.92307 c -8.32572,-14.69109 -20.32401,-24.97534 -35.99491,-30.85277 -36.72979,7.83633 -55.09452,23.01784 -55.09424,45.54457"
         style="font-variant:normal;font-stretch:normal;fill:#ee0000;font-family:Johanneke Pro;-inkscape-font-specification:Johanneke Pro"
         id="path2989" />
    </g>
    <flowRoot
       xml:space="preserve"
       id="flowRoot3050"
       style="font-size:40px;font-style:normal;font-weight:normal;line-height:125%;letter-spacing:0px;word-spacing:0px;fill:#000000;fill-opacity:1;stroke:none;font-family:Sans"><flowRegion
         id="flowRegion3052"><rect
           id="rect3054"
           width="311.42856"
           height="191.42857"
           x="357.14285"
           y="578.07648" /></flowRegion><flowPara
         id="flowPara3056" /></flowRoot>  </g>
</svg>
