<?xml version="1.0" encoding="UTF-8" standalone="no"?>
<!-- Created with Inkscape (http://www.inkscape.org/) -->

<svg
   xmlns:dc="http://purl.org/dc/elements/1.1/"
   xmlns:cc="http://creativecommons.org/ns#"
   xmlns:rdf="http://www.w3.org/1999/02/22-rdf-syntax-ns#"
   xmlns:svg="http://www.w3.org/2000/svg"
   xmlns="http://www.w3.org/2000/svg"
   xmlns:sodipodi="http://sodipodi.sourceforge.net/DTD/sodipodi-0.dtd"
   xmlns:inkscape="http://www.inkscape.org/namespaces/inkscape"
   width="266"
   height="95"
   id="svg2"
   version="1.1"
   inkscape:version="0.48.5 r10040"
   sodipodi:docname="dixit-d.svg">
  <defs
     id="defs4" />
  <sodipodi:namedview
     id="base"
     pagecolor="#ffffff"
     bordercolor="#666666"
     borderopacity="1.0"
     inkscape:pageopacity="0.0"
     inkscape:pageshadow="2"
     inkscape:zoom="3.8700538"
     inkscape:cx="132.81469"
     inkscape:cy="49.347415"
     inkscape:document-units="px"
     inkscape:current-layer="text2985"
     showgrid="false"
     inkscape:window-width="1440"
     inkscape:window-height="797"
     inkscape:window-x="0"
     inkscape:window-y="0"
     inkscape:window-maximized="1" />
  <metadata
     id="metadata7">
    <rdf:RDF>
      <cc:Work
         rdf:about="">
        <dc:format>image/svg+xml</dc:format>
        <dc:type
           rdf:resource="http://purl.org/dc/dcmitype/StillImage" />
        <dc:title></dc:title>
      </cc:Work>
    </rdf:RDF>
  </metadata>
  <g
     inkscape:label="Capa 1"
     inkscape:groupmode="layer"
     id="layer1"
     transform="translate(0,-957.36219)">
    <g
       style="font-size:479.28457642px;font-style:normal;font-weight:normal;line-height:125%;letter-spacing:0px;word-spacing:0px;fill:#000000;fill-opacity:1;stroke:none;font-family:Sans"
       id="text2985">
      <g
         id="g2988"
         transform="matrix(0.26304596,0,0,0.26304596,-5.4098123,825.9081)">
        <path
           id="path2990"
           style="font-variant:normal;font-weight:bold;font-stretch:normal;font-family:Berlin Sans FB Demi;-inkscape-font-specification:Berlin Sans FB Demi Bold"
           d="m 280.10309,515.0928 c -2.7e-4,-3.43204 -0.62433,1.71652 -1.8722,15.4457 -1.71646,17.3182 -3.0426,39.4726 -3.97844,66.46329 -1.2484,30.57957 -1.87247,65.37135 -1.87221,104.37545 -2.6e-4,64.43515 1.79394,110.30413 5.38259,137.60709 0.31177,2.96433 0.46779,4.83654 0.46806,5.61662 -2.7e-4,1.71619 -1.1704,2.7303 -3.51039,3.04233 -5.61687,0.78009 -26.28912,1.17013 -62.0168,1.17013 -8.42512,0 -13.26164,-1.63818 -14.50959,-4.91454 -0.31222,-5.92864 -0.62426,-11.85728 -0.93611,-17.78595 -0.1562,-1.24811 -0.78027,-2.49625 -1.8722,-3.74441 -0.93629,0.46808 -2.10641,1.40418 -3.51039,2.80831 -16.85001,16.53782 -37.9123,24.80672 -63.18693,24.80672 -32.919693,0 -59.286559,-11.54526 -79.100676,-34.6358 -18.878089,-21.99836 -28.317115,-49.76938 -28.317106,-83.31314 -9e-6,-34.01158 9.283,-62.01662 27.849055,-84.01522 19.6581,-23.40234 46.180983,-35.10361 79.568727,-35.10385 23.55845,2.4e-4 41.89044,7.48905 54.99603,22.46647 2.18407,2.49648 3.74424,3.74462 4.68052,3.74441 1.40397,2.1e-4 2.10605,-2.02801 2.10623,-6.08467 -1.8e-4,-12.01309 -0.31221,-29.95504 -0.9361,-53.8259 -0.62425,-23.87033 -0.93628,-41.73427 -0.93611,-53.59188 -1.7e-4,-4.52417 1.24796,-7.09845 3.74441,-7.72285 9.98491,-0.46772 23.7144,-1.40382 41.18852,-2.80831 31.20317,-3.90009 45.01067,-5.8503 41.42255,-5.85064 3.43211,3.4e-4 5.14829,1.95055 5.14856,5.85064 m -88.22768,215.0696 c -1.8e-4,-12.32523 -4.29064,-23.0904 -12.87141,-32.29555 -8.5811,-9.36087 -18.95623,-14.04137 -31.12541,-14.04154 -12.79353,1.7e-4 -23.01264,4.68067 -30.65737,14.04154 -7.48892,9.20515 -11.23332,20.28236 -11.23323,33.23165 -9e-5,12.63749 3.82232,23.32465 11.46726,32.06152 7.80074,9.3611 17.94184,14.04161 30.42334,14.04154 12.48122,7e-5 22.93435,-4.68044 31.35944,-14.04154 8.42475,-9.36094 12.6372,-20.36013 12.63738,-32.99762"
           inkscape:connector-curvature="0" />
        <path
           id="path2992"
           style="font-variant:normal;font-weight:bold;font-stretch:normal;font-family:Berlin Sans FB Demi;-inkscape-font-specification:Berlin Sans FB Demi Bold"
           d="m 407.41305,565.87637 c -1.1e-4,27.14724 -15.28978,40.72071 -45.86903,40.72047 -13.10549,2.4e-4 -23.94867,-3.43213 -32.52957,-10.29713 -9.36105,-7.48856 -14.04156,-17.62966 -14.04154,-30.42334 -2e-5,-12.16904 4.8365,-22.15412 14.50959,-29.95528 8.89293,-7.17647 19.58009,-10.76486 32.06152,-10.76518 12.16925,3.2e-4 22.7004,3.66672 31.59346,10.9992 9.51694,7.80116 14.27546,17.70824 14.27557,29.72126 m -6.08467,173.88108 c -1.1e-4,11.38934 0.23392,28.39519 0.70208,51.01759 0.46794,22.4665 0.70197,39.31633 0.70207,50.54955 -10e-5,3.27636 -1.95032,5.22657 -5.85064,5.85064 -5.30468,0.9361 -17.23997,1.40415 -35.80593,1.40416 -18.7221,-10e-6 -30.7354,-0.46806 -36.03995,-1.40416 -3.4324,-0.62407 -5.53863,-1.63818 -6.31869,-3.04233 -0.31206,-0.62407 -0.46808,-2.96432 -0.46805,-7.02077 -3e-5,-10.76516 0.234,-26.91292 0.70207,-48.44332 0.46803,-21.68629 0.70206,-37.99007 0.70208,-48.91136 -2e-5,-44.30871 -1.71621,-79.56854 -5.14856,-105.77961 -0.31206,-2.49605 -0.46807,-4.13423 -0.46806,-4.91453 -1e-5,-3.12013 2.10621,-4.6803 6.3187,-4.68052 4.36845,2.2e-4 10.99917,0.46828 19.89218,1.40416 9.04894,0.93632 15.83568,1.40437 20.36023,1.40415 4.52443,2.2e-4 11.31117,-0.38982 20.36024,-1.17013 9.04889,-0.77986 15.83563,-1.1699 20.36023,-1.17013 3.7443,2.3e-4 5.6165,1.5604 5.61662,4.68052 -1.2e-4,0.62428 -0.15613,2.10644 -0.46805,4.44648 -3.43249,30.42352 -5.14868,65.68336 -5.14857,105.77961"
           inkscape:connector-curvature="0" />
        <path
           id="path2994"
           style="font-variant:normal;font-weight:bold;font-stretch:normal;font-family:Berlin Sans FB Demi;-inkscape-font-specification:Berlin Sans FB Demi Bold"
           d="m 706.73188,816.04982 c -2.8e-4,15.28969 -0.70235,24.33867 -2.10623,27.14698 -1.71646,3.43237 -7.02104,5.14856 -15.91374,5.14856 -1.40442,0 -4.52476,0 -9.36103,0 -4.68076,-0.15602 -8.6592,-0.23403 -11.93531,-0.23403 -3.12058,0 -7.8791,-0.15601 -14.27557,-0.46805 -6.2409,-0.31203 -10.92141,-0.46805 -14.04154,-0.46805 -2.49648,0 -13.7297,-14.97763 -33.69969,-44.93293 -19.97035,-29.95521 -30.34548,-45.01084 -31.12542,-45.16695 -3.2765,2.65238 -14.50972,18.41009 -33.6997,47.27318 -18.41011,27.61505 -29.17528,41.8906 -32.29554,42.8267 -2.18432,0.62407 -8.03495,0.9361 -17.55192,0.9361 -31.98354,0 -47.97528,-1.63817 -47.97527,-4.91453 -1e-5,-3.27636 -0.23404,-7.95687 -0.70207,-14.04154 -0.31205,-6.08465 -0.46807,-10.60914 -0.46805,-13.57349 -2e-5,-19.34608 1.17011,-30.73531 3.51038,-34.16775 0.156,-0.15595 13.0274,-17.23981 38.61424,-51.25162 20.7502,-27.45887 31.12532,-43.13858 31.12541,-47.03916 -9e-5,-3.90026 -10.37521,-19.34594 -31.12541,-46.33709 -13.10548,-16.6936 -26.1329,-33.46542 -39.08229,-50.31552 -1.40417,-2.02796 -2.26226,-5.38232 -2.57428,-10.0631 -0.15604,-3.27609 -0.15604,-7.72257 0,-13.33946 0.46803,-6.70845 0.70206,-10.45286 0.70207,-11.23324 -1e-5,-3.12004 -0.31205,-7.95657 -0.9361,-14.50959 -0.46806,-6.5524 -0.70209,-11.38893 -0.70208,-14.50959 -10e-6,-2.964 2.73029,-4.44616 8.1909,-4.44649 3.58837,3.3e-4 8.89295,0.23436 15.91375,0.70208 7.02072,0.46838 12.24729,0.7024 15.67972,0.70208 3.12028,3.2e-4 7.72278,-0.15569 13.80751,-0.46805 6.0846,-0.31171 10.60909,-0.46773 13.57349,-0.46806 2.49619,3.3e-4 13.80742,15.21199 33.93372,45.63501 20.28209,30.26757 30.89125,45.40122 31.8275,45.40098 3.12019,-1.87197 14.58743,-17.7857 34.40177,-47.74124 18.87787,-28.86285 29.72105,-43.29442 32.52957,-43.29475 l 55.69811,0 c 5.46032,3.3e-4 8.19062,1.32648 8.1909,3.97844 l 0,56.86824 c -2.8e-4,4.05671 -12.0916,21.76463 -36.27398,53.12383 -24.02686,31.35962 -36.04016,47.97543 -36.03996,49.84746 -2e-4,2.65246 10.60895,18.02013 31.8275,46.10306 24.96247,32.9197 37.98989,50.15957 39.08228,51.71968 2.18396,3.43244 3.27608,15.28972 3.27636,35.5719"
           inkscape:connector-curvature="0" />
        <path
           id="path2996"
           style="font-variant:normal;font-weight:bold;font-stretch:normal;font-family:Berlin Sans FB Demi;-inkscape-font-specification:Berlin Sans FB Demi Bold"
           d="m 835.212,565.87637 c -1.1e-4,27.14724 -15.28978,40.72071 -45.86903,40.72047 -13.10549,2.4e-4 -23.94867,-3.43213 -32.52957,-10.29713 -9.36105,-7.48856 -14.04156,-17.62966 -14.04154,-30.42334 -2e-5,-12.16904 4.8365,-22.15412 14.50959,-29.95528 8.89293,-7.17647 19.58009,-10.76486 32.06152,-10.76518 12.16925,3.2e-4 22.7004,3.66672 31.59346,10.9992 9.51694,7.80116 14.27546,17.70824 14.27557,29.72126 m -6.08467,173.88108 c -1.1e-4,11.38934 0.23392,28.39519 0.70208,51.01759 0.46794,22.4665 0.70197,39.31633 0.70207,50.54955 -10e-5,3.27636 -1.95032,5.22657 -5.85064,5.85064 -5.30468,0.9361 -17.23997,1.40415 -35.80592,1.40416 -18.72211,-10e-6 -30.73541,-0.46806 -36.03996,-1.40416 -3.4324,-0.62407 -5.53863,-1.63818 -6.31869,-3.04233 -0.31206,-0.62407 -0.46808,-2.96432 -0.46805,-7.02077 -3e-5,-10.76516 0.234,-26.91292 0.70207,-48.44332 0.46803,-21.68629 0.70206,-37.99007 0.70208,-48.91136 -2e-5,-44.30871 -1.71621,-79.56854 -5.14856,-105.77961 -0.31206,-2.49605 -0.46807,-4.13423 -0.46805,-4.91453 -2e-5,-3.12013 2.1062,-4.6803 6.31869,-4.68052 4.36845,2.2e-4 10.99917,0.46828 19.89218,1.40416 9.04894,0.93632 15.83568,1.40437 20.36023,1.40415 4.52443,2.2e-4 11.31117,-0.38982 20.36024,-1.17013 9.04889,-0.77986 15.83563,-1.1699 20.36023,-1.17013 3.7443,2.3e-4 5.6165,1.5604 5.61662,4.68052 -1.2e-4,0.62428 -0.15613,2.10644 -0.46805,4.44648 -3.43249,30.42352 -5.14868,65.68336 -5.14857,105.77961"
           inkscape:connector-curvature="0" />
        <path
           id="path2998"
           style="font-variant:normal;font-weight:bold;font-stretch:normal;font-family:Berlin Sans FB Demi;-inkscape-font-specification:Berlin Sans FB Demi Bold"
           d="m 1031.0915,778.60571 c -2e-4,4.68058 -0.6243,11.77935 -1.8722,21.29634 -1.0923,9.51708 -1.6384,16.53784 -1.6382,21.06231 -2e-4,4.3685 -0.4682,7.1768 -1.4042,8.42492 -0.9362,1.24815 -3.5105,3.04235 -7.7228,5.38259 -20.12635,11.07722 -42.43678,16.61582 -66.93134,16.61582 -45.089,0 -67.63345,-17.23987 -67.63342,-51.71967 -3e-5,-10.29707 0.39001,-25.74275 1.17013,-46.33708 0.78005,-20.75016 1.17009,-36.27385 1.17012,-46.57111 -3e-5,-6.86461 -3.97846,-10.29698 -11.93531,-10.29713 -0.62408,1.5e-4 -1.63819,1.5e-4 -3.04233,0 -1.40417,0.15617 -2.41828,0.23418 -3.04233,0.23402 -5.92866,1.6e-4 -8.89298,-2.10607 -8.89298,-6.31869 0,-2.49611 0.15601,-6.31853 0.46805,-11.46726 0.46805,-5.14839 0.70207,-8.9708 0.70208,-11.46725 -10e-6,-3.27618 -0.23403,-8.26872 -0.70208,-14.97765 -0.31204,-6.70853 -0.46805,-11.70107 -0.46805,-14.97764 0,-3.12013 4.99254,-4.83632 14.97764,-5.14857 5.6166,-0.1558 8.65893,-1.71597 9.12701,-4.68051 0.93607,-5.92842 1.2481,-15.28944 0.9361,-28.08308 -0.6241,-20.12594 -0.93613,-29.72098 -0.9361,-28.78516 -3e-5,-18.09769 1.71615,-27.14667 5.14856,-27.14697 4.21242,3e-4 10.21908,0.9364 18.01998,2.8083 8.89291,2.02852 15.05558,3.19865 18.48803,3.51039 7.95679,1.09241 19.9701,2.57458 36.03995,4.44649 3.90032,0.31232 5.85053,1.63847 5.85064,3.97843 -1.1e-4,6.24097 -0.54617,15.68 -1.63818,28.31711 -0.93621,12.63763 -1.40426,22.15467 -1.40415,28.55113 -1.1e-4,7.64506 2.26213,11.46748 6.78674,11.46726 5.46048,2.2e-4 13.72938,-0.23381 24.80672,-0.70208 11.07702,-0.46783 19.42402,-0.70185 25.04072,-0.70208 3.4322,2.3e-4 5.1484,1.17035 5.1486,3.51039 -2e-4,3.58861 -0.3902,8.97119 -1.1701,16.14777 -0.7803,7.17698 -1.1703,12.55957 -1.1702,16.14777 -10e-5,3.7446 0.078,9.20519 0.2341,16.3818 0.1558,7.17695 0.2338,12.63754 0.234,16.3818 -2e-4,3.27651 -2.2624,4.91468 -6.7868,4.91454 -3.1205,1.4e-4 -8.347,-0.0779 -15.6797,-0.23403 -7.33292,-0.31189 -12.55949,-0.4679 -15.6797,-0.46805 l -17.55192,0 c -2.34037,1.5e-4 -3.5105,3.43252 -3.51039,10.29713 -1.1e-4,3.74454 -1.1e-4,9.28315 0,16.61582 0.15591,7.48894 0.23392,13.02754 0.23403,16.61582 -1.1e-4,13.10553 1.48205,22.15452 4.44649,27.14698 4.21234,6.70881 12.48124,10.06317 24.80672,10.06311 3.90028,6e-5 9.43887,-0.85803 16.61587,-2.57429 7.3326,-1.87213 12.4812,-2.80823 15.4456,-2.8083 3.2762,7e-5 4.9144,1.71626 4.9146,5.14856"
           inkscape:connector-curvature="0" />
      </g>
    </g>
  </g>
</svg>
